# xmcd CD Database Entry
#
# Track frame offsets:
# 150
# 26864
# 45911
# 67046
# 94672
# 98436
# 125470
# 145542
# 169675
# 172483
# 199396
# 218514
# 238711
# 265231
# 295856
#
# Disc length: 4049 seconds
#
# Revision: 1
# Processed by: cddbd v1.4b42PL1 Copyright (c) Steve Scherf et al.
# Submitted via: tcd 2.0b
#
DISCID=d80fcf0f
DTITLE=Tracey Harris - keep on believin'
DYEAR=1900
DGENRE=
TTITLE0=KEEP ON BELIEVIN'
TTITLE1=IF IT'S GONNA TAKE A MIRACLE
TTITLE2=REST IN THE LORD
TTITLE3=I'M COMING HOME
TTITLE4=INTERLUDE
TTITLE5=FAITH
TTITLE6=TODAY
TTITLE7=BACKYARD
TTITLE8=INTERLUDE
TTITLE9=WOULD U MIND?
TTITLE10=THE WEDDING SONG
TTITLE11=DANCIN' IN THE SON
TTITLE12=HUMBLY BEFORE YOU
TTITLE13=CELEBRATE
TTITLE14=INTERLUDE
EXTD=
EXTT0=
EXTT1=
EXTT2=
EXTT3=
EXTT4=
EXTT5=
EXTT6=
EXTT7=
EXTT8=
EXTT9=
EXTT10=
EXTT11=
EXTT12=
EXTT13=
EXTT14=
PLAYORDER=
